<?xml version="1.0" encoding="UTF-8" standalone="no"?>
<!-- Created with Inkscape (http://www.inkscape.org/) -->

<svg
   width="16"
   height="16"
   viewBox="0 0 16 16"
   version="1.1"
   id="svg1"
   inkscape:version="1.4 (e7c3feb100, 2024-10-09)"
   sodipodi:docname="province_map_2d_icon.svg"
   xmlns:inkscape="http://www.inkscape.org/namespaces/inkscape"
   xmlns:sodipodi="http://sodipodi.sourceforge.net/DTD/sodipodi-0.dtd"
   xmlns="http://www.w3.org/2000/svg"
   xmlns:svg="http://www.w3.org/2000/svg">
  <sodipodi:namedview
     id="namedview1"
     pagecolor="#505050"
     bordercolor="#eeeeee"
     borderopacity="1"
     inkscape:showpageshadow="0"
     inkscape:pageopacity="0"
     inkscape:pagecheckerboard="0"
     inkscape:deskcolor="#505050"
     inkscape:document-units="px"
     inkscape:zoom="70.268736"
     inkscape:cx="7.8057473"
     inkscape:cy="6.4253326"
     inkscape:window-width="1920"
     inkscape:window-height="1080"
     inkscape:window-x="0"
     inkscape:window-y="0"
     inkscape:window-maximized="1"
     inkscape:current-layer="layer1" />
  <defs
     id="defs1" />
  <g
     inkscape:label="Layer 1"
     inkscape:groupmode="layer"
     id="layer1">
    <path
       id="path25"
       style="fill:#8da5f3;fill-opacity:1;stroke:#8da5f3;stroke-width:0;stroke-dasharray:none;stroke-opacity:1"
       d="M 6.7753906,0.77734375 C 6.6683609,0.77996339 6.5927156,0.91394813 6.5410156,0.98632812 6.3578668,1.0742542 6.0589598,1.0926941 5.8574219,1.0664062 5.7621762,1.0539828 5.6689642,1.0216503 5.5742188,1.0058594 c -0.079408,-0.0132346 -0.1597312,0 -0.2402344,0 -0.2685178,0 -0.5235338,-0.0199529 -0.7851563,0.060547 -0.1643508,0.050569 -0.32232,0.1241374 -0.484375,0.1816407 -0.046028,0.016332 -0.096941,0.017219 -0.140625,0.039063 C 3.7782713,1.359885 3.6489208,1.4711953 3.5214844,1.5703125 3.0772647,1.9158167 2.7485194,2.2599861 2.3945312,2.6972656 2.1807247,2.96138 2.2735823,2.7900027 1.9921875,3.2402344 c -0.047703,0.076324 -0.079331,0.162458 -0.1210937,0.2421875 -0.0956,0.1825089 -0.1397633,0.2784917 -0.1601563,0.4824219 -0.025073,0.2507279 0.091535,0.4798142 0.1816406,0.7050781 0.083901,0.2097531 -0.015233,0.036934 0.1191407,0.28125 0.044914,0.081662 0.099468,0.1595589 0.1425781,0.2421875 0.037496,0.071867 0.05734,0.1515358 0.099609,0.2207031 0.032252,0.052776 0.088313,0.088177 0.1210938,0.140625 0.077881,0.12461 0.098089,0.271314 0.1601562,0.4023437 0.014924,0.031506 0.03465,0.060708 0.054688,0.089844 0.071572,-0.024611 0.1432303,-0.04758 0.2148437,-0.072266 0.3247634,-0.069552 0.4109812,-0.098965 0.7441406,-0.1210938 0.13374,-0.00888 0.2666297,-0.013197 0.4003907,-0.011719 0.401282,0.00444 0.8034029,0.048768 1.2011718,0.095703 0.2971632,0.043071 0.5948175,0.087636 0.8847656,0.1679688 0.076511,0.021198 0.1529258,0.042586 0.2265626,0.072266 0.2094199,0.084407 0.2335283,0.1175399 0.4140624,0.2460937 0.2478183,0.2086109 0.4264032,0.4805078 0.6230469,0.734375 0.09075,0.1237819 0.1890648,0.1821262 0.3261719,0.2421875 0.135565,0.05353 0.2743838,0.099257 0.4101562,0.1523438 0.08621,0.034085 0.1700205,0.07132 0.2460938,0.125 0.056433,0.039821 0.077164,0.06084 0.1269531,0.1074218 0.087195,0.085413 0.1584595,0.1839805 0.2226563,0.2871094 0.2345752,-0.1800596 0.4813822,-0.3434843 0.7402344,-0.4863281 0.2623324,-0.1331186 0.358727,-0.19216 0.6328122,-0.296875 0.366905,-0.1401757 0.754339,-0.2202451 1.146485,-0.2402344 0.09028,2.852e-4 0.179331,-0.00381 0.269531,0 0.08485,0.00358 0.169456,0.012494 0.253906,0.021484 0.345974,0.036828 0.687031,0.1069898 1.027344,0.1777344 4.19e-4,-0.1708353 0.0036,-0.3409567 0.05859,-0.5058594 0.0076,-0.022947 0.03203,-0.038089 0.04101,-0.060547 0.01814,-0.045346 0.02047,-0.095464 0.03906,-0.140625 0.133361,-0.3238786 0.387134,-0.6394531 0.583984,-0.9257812 0.192919,-0.280609 -0.03982,-7.29e-4 0.181641,-0.28125 0.06493,-0.082249 0.139202,-0.157683 0.201172,-0.2421875 0.01255,-0.017107 0.0083,-0.042557 0.01953,-0.060547 0.02883,-0.046128 0.138471,-0.1491684 0.162109,-0.2011719 0.05776,-0.1270718 0.07582,-0.1757463 0.08008,-0.1953125 0.01999,-0.026996 0.038,-0.049663 0.09961,-0.1464844 0.06951,-0.1092288 0.183696,-0.4637035 0.201172,-0.6035156 0.01415,-0.1131654 0,-0.2277511 0,-0.3417968 0,-0.2026464 0.04475,-0.4370452 -0.09961,-0.6054688 -0.16009,-0.1868081 -0.459984,-0.2545231 -0.685547,-0.3203125 -0.228971,-0.066783 -0.46242,-0.1674815 -0.703125,-0.1816406 -0.149182,-0.00878 -0.315909,-0.00986 -0.46289,0.019531 -0.116568,0.023314 -0.225471,0.077073 -0.341797,0.1015625 -0.05945,0.012515 -0.121817,0.00898 -0.181641,0.019531 -0.05448,0.00961 -0.107541,0.031921 -0.162109,0.041016 -0.08602,0.014337 -0.172554,0 -0.259766,0 -0.323597,0 -0.584497,-0.032204 -0.886718,-0.1210937 C 10.382281,2.4361904 10.126993,2.3847898 9.9414062,2.2734375 9.9045718,2.2513369 9.8775385,2.2171871 9.8417969,2.1933594 9.6739897,2.0814879 9.4944841,1.9820571 9.3378906,1.8515625 9.2507005,1.7789041 9.1855869,1.6813182 9.0976562,1.609375 9.0744362,1.5903768 9.0400384,1.5877507 9.015625,1.5703125 8.9693038,1.5372259 8.9402149,1.4856609 8.8964844,1.4492188 8.8188634,1.3845346 8.4196178,1.115133 8.3320312,1.0859375 8.1787649,1.0348487 8.0301583,1.0156041 7.8691406,0.98632812 7.6476178,0.94605126 7.4286803,0.89717753 7.2050781,0.86523438 7.1103126,0.85169644 7.0179698,0.8164552 6.9238281,0.8046875 c -0.026627,-0.003328 -0.055718,0.005263 -0.082031,0 -0.0093,-0.001861 -0.01053,-0.016531 -0.019531,-0.0195313 -0.016614,-0.005538 -0.031585,-0.008187 -0.046875,-0.007813 z M 4.4335938,7.0898438 c -0.092443,-2.229e-4 -0.1848245,0.002 -0.2773438,0.00586 -0.1786007,0.00963 -0.3565118,0.02238 -0.5351562,0.03125 -0.1821916,0.0068 -0.3643167,0.00907 -0.546875,0.011719 0.053412,0.1434154 0.1037187,0.2875663 0.1660156,0.4277343 0.015887,0.035746 0.051487,0.063509 0.060547,0.1015626 0.06949,0.2918589 0.1352412,0.5857844 0.1601563,0.8847656 0.038399,0.4607896 -0.05278,0.8442185 -0.1601563,1.2890625 -0.029406,0.1218281 -0.058236,0.2437281 -0.1015624,0.3613281 3.66e-5,0.134382 -0.1144636,0.211298 -0.1601563,0.322266 -0.03231,0.07847 -0.045903,0.164515 -0.080078,0.242187 -0.1955269,0.444379 -0.091752,0.07572 -0.2421875,0.501953 -0.046029,0.130417 -0.057962,0.272415 -0.099609,0.404297 -0.069448,0.219918 -0.023845,-0.117269 -0.1015625,0.240234 -0.021566,0.0992 -0.018993,0.203633 -0.041016,0.302735 -0.00525,0.02361 -0.025643,0.04042 -0.039063,0.06055 -0.013417,0.04696 -0.031437,0.09274 -0.041016,0.140625 -0.035763,0.178817 -0.050082,0.362989 -0.080078,0.542969 -0.00349,0.02093 -0.016899,0.0395 -0.019531,0.06055 -0.014536,0.116284 0,0.243487 0,0.361328 0,0.01342 -0.010591,0.03278 0,0.04102 0.2027262,0.157676 0.3831992,0.217333 0.6230469,0.322266 0.1017364,0.04451 0.1992854,0.100255 0.3027343,0.140625 0.3379976,0.131902 0.6853957,0.236616 1.0253907,0.363281 0.8690265,0.323755 0.1735049,0.09463 1.0273437,0.341797 0.2526213,0.07313 0.8521482,0.248818 1.1054687,0.160156 0.3856717,-0.134985 0.6368866,-0.456775 0.9472657,-0.705078 0.1768,-0.14144 0.4072735,-0.259573 0.6035156,-0.361328 0.0082,-0.0042 0.011986,-0.0058 0.019531,-0.0098 C 7.9185927,13.393307 7.8896493,13.110653 7.859375,12.828125 7.7995335,12.268788 7.7493858,11.706832 7.6523438,11.152344 7.6144798,10.960766 7.6111062,10.932257 7.5664062,10.748047 7.5070961,10.50363 7.426738,10.263338 7.390625,10.013672 7.377798,9.8421298 7.3638132,9.7895217 7.3945312,9.6171875 7.4384099,9.3710214 7.5653069,9.1583753 7.7167969,8.9648438 7.7055511,8.9552992 7.69472,8.9452413 7.6835938,8.9355469 7.5966115,8.8570848 7.5144575,8.7722054 7.4296875,8.6914062 7.3638382,8.6320614 7.289701,8.584132 7.21875,8.53125 7.139351,8.4714767 7.0626654,8.4078937 6.9902344,8.3398438 6.9296104,8.2784676 6.8623177,8.2249461 6.7929688,8.1738281 6.6890636,8.1037 6.5843708,8.0339445 6.4824219,7.9609375 6.3604913,7.8790829 6.2573643,7.7751719 6.1601562,7.6660156 6.086158,7.5775514 6.0149799,7.4880029 5.9355469,7.4042969 5.8899706,7.3611219 5.8442244,7.3147564 5.7871094,7.2871094 c -0.00461,-0.00184 -0.00889,-0.00452 -0.013672,-0.00586 -0.00207,-5.819e-4 -0.00376,4.649e-4 -0.00586,0 -0.010051,-0.00222 -0.019327,-0.00524 -0.029297,-0.00781 -0.053571,-0.0138 -0.1080953,-0.025167 -0.1621093,-0.037109 -0.1333622,-0.027443 -0.268223,-0.052738 -0.4023438,-0.076172 -0.1530952,-0.030363 -0.30748,-0.048014 -0.4628906,-0.060547 -0.092396,-0.00687 -0.1849008,-0.00954 -0.2773437,-0.00977 z m 7.2089842,1.2128906 c -0.12534,3.12e-4 -0.251987,0.00595 -0.376953,0.015625 -0.08675,0.00831 -0.172831,0.019194 -0.257813,0.039063 -0.0813,0.018196 -0.160574,0.040053 -0.240234,0.064453 -0.08792,0.026666 -0.175782,0.053312 -0.263672,0.080078 -0.110731,0.033893 -0.222324,0.068367 -0.332031,0.1054688 -0.11939,0.040216 -0.2393182,0.079099 -0.3574219,0.1230469 -0.1271109,0.046098 -0.2534759,0.093162 -0.3769531,0.1484374 -0.052795,0.023353 -0.1059369,0.045988 -0.1582031,0.070313 -0.040231,0.039706 -0.078867,0.079173 -0.1171875,0.1210937 -0.022543,0.024219 -0.04396,0.049719 -0.066406,0.074219 -0.028332,0.05943 -0.074957,0.1118206 -0.1386719,0.1523438 -0.00516,0.00588 -0.010487,0.011692 -0.015625,0.017578 C 8.8766524,9.3938651 8.8107786,9.473268 8.7597656,9.5625 8.7227206,9.624971 8.6870746,9.6871374 8.6582031,9.7539062 c -0.019677,0.047899 -0.039232,0.096535 -0.044922,0.1484376 -0.00694,0.072624 -0.012657,0.1458672 -0.015625,0.2187502 0.014517,0.08224 0.030004,0.164379 0.046875,0.246094 0.024526,0.115247 0.052312,0.230305 0.076172,0.345703 0.026551,0.130395 0.048317,0.261688 0.072266,0.392578 0.03073,0.153761 0.061013,0.307583 0.09375,0.460937 0.035714,0.172917 0.073975,0.345766 0.1054687,0.519532 0.031494,0.165281 0.061379,0.330055 0.074219,0.498046 0.01,0.173301 0.011488,0.347917 0.00977,0.521485 4.19e-4,0.132654 0.0026,0.264473 0.017578,0.396484 0.00484,0.04752 0.010444,0.09516 0.015625,0.142578 0.035489,0.01446 0.070815,0.02937 0.1074219,0.04102 0.072889,0.02319 0.1488617,0.04042 0.2226562,0.06055 0.087212,0.03354 0.1727244,0.07113 0.2617188,0.09961 0.079033,0.02529 0.1621588,0.03244 0.2402343,0.06055 0.090375,0.03254 0.1716458,0.08774 0.2617188,0.121094 0.0916,0.03392 0.191298,0.047 0.283203,0.08008 0.07627,0.02746 0.145678,0.07087 0.220703,0.101562 0.106188,0.04344 0.316194,0.107317 0.421875,0.160157 0.03,0.015 0.05259,0.04449 0.08203,0.06055 0.177179,0.09664 0.367274,0.15923 0.542968,0.261718 0.01639,0.0096 0.02259,0.03161 0.03906,0.04102 0.06916,0.03952 0.306099,0.132954 0.382812,0.140625 0.157669,0.01577 0.323357,0 0.482422,0 0.103182,0 0.424443,-0.05752 0.503906,-0.121094 0.01889,-0.01511 0.02679,-0.04099 0.04102,-0.06055 0.03946,-0.05426 0.08084,-0.106488 0.121094,-0.160156 0.04025,-0.0738 0.07076,-0.153912 0.11914,-0.222656 0.520983,-0.64121 0.0721,-0.05541 0.382813,-0.521485 0.06343,-0.229288 0.278603,-0.341465 0.402344,-0.523437 0.08658,-0.127329 0.303282,-0.55555 0.363281,-0.685547 0.04804,-0.104085 0.0896,-0.21204 0.121094,-0.322266 0.04894,-0.171289 0.03706,-0.360112 0.08008,-0.542968 0.07534,-0.320199 0.209573,-0.666955 0.06055,-0.986329 -0.09981,-0.213881 -0.262154,-0.377702 -0.402344,-0.5625 C 14.260362,9.912515 14.087858,9.6426773 13.886719,9.3984375 13.708509,9.1820391 13.502664,8.9861655 13.34375,8.7539062 13.29957,8.6893383 13.26719,8.6170586 13.222656,8.5527344 c -0.0162,-0.023401 -0.04307,-0.038081 -0.06055,-0.060547 -0.01788,-0.022985 -0.03411,-0.045505 -0.05078,-0.068359 -0.0965,-0.010742 -0.192954,-0.022005 -0.289062,-0.033203 -0.149761,-0.016163 -0.299275,-0.030551 -0.449219,-0.044922 -0.125584,-0.012627 -0.250602,-0.02909 -0.376953,-0.03125 -0.117775,-0.00523 -0.235573,-0.012369 -0.353516,-0.011719 z" />
  </g>
</svg>
